<svg id="visual" viewBox="0 0 900 600" width="900" height="600" xmlns="http://www.w3.org/2000/svg" xmlns:xlink="http://www.w3.org/1999/xlink" version="1.1"><g stroke-width="1" stroke-linejoin="bevel"><path d="M421 339L433.7 371L463 347Z" fill="#2b60a2" stroke="#2b60a2"></path><path d="M532.3 379L522.3 350L463 347Z" fill="#659bce" stroke="#659bce"></path><path d="M473 240L371.4 299L421 339Z" fill="#598fc6" stroke="#598fc6"></path><path d="M473 240L421 339L463 347Z" fill="#4d83bd" stroke="#4d83bd"></path><path d="M421 339L327.4 430L433.7 371Z" fill="#2b60a2" stroke="#2b60a2"></path><path d="M500 432L532.3 379L463 347Z" fill="#2b60a2" stroke="#2b60a2"></path><path d="M540.6 353L527.3 304L522.3 350Z" fill="#7fb4df" stroke="#7fb4df"></path><path d="M522.3 350L527.3 304L463 347Z" fill="#4d83bd" stroke="#4d83bd"></path><path d="M532.3 379L540.6 353L522.3 350Z" fill="#8dc0e7" stroke="#8dc0e7"></path><path d="M433.7 371L500 432L463 347Z" fill="#72a7d6" stroke="#72a7d6"></path><path d="M371.4 299L343.7 317L421 339Z" fill="#8dc0e7" stroke="#8dc0e7"></path><path d="M433.7 371L426.7 494L500 432Z" fill="#8dc0e7" stroke="#8dc0e7"></path><path d="M527.3 304L473 240L463 347Z" fill="#598fc6" stroke="#598fc6"></path><path d="M371.7 231L346.7 277L371.4 299Z" fill="#4277b4" stroke="#4277b4"></path><path d="M371.4 299L346.7 277L343.7 317Z" fill="#205499" stroke="#205499"></path><path d="M504 485L517.3 450L500 432Z" fill="#7fb4df" stroke="#7fb4df"></path><path d="M500 432L517.3 450L532.3 379Z" fill="#7fb4df" stroke="#7fb4df"></path><path d="M532.3 379L596.6 405L540.6 353Z" fill="#2b60a2" stroke="#2b60a2"></path><path d="M473 240L371.7 231L371.4 299Z" fill="#205499" stroke="#205499"></path><path d="M268.4 339L327.4 430L343.7 317Z" fill="#366bab" stroke="#366bab"></path><path d="M343.7 317L327.4 430L421 339Z" fill="#4d83bd" stroke="#4d83bd"></path><path d="M327.4 430L426.7 494L433.7 371Z" fill="#659bce" stroke="#659bce"></path><path d="M426.7 494L504 485L500 432Z" fill="#598fc6" stroke="#598fc6"></path><path d="M591.6 252L523.3 208L527.3 304Z" fill="#659bce" stroke="#659bce"></path><path d="M527.3 304L523.3 208L473 240Z" fill="#144990" stroke="#144990"></path><path d="M455 170L362.7 200L371.7 231Z" fill="#205499" stroke="#205499"></path><path d="M609.9 498L596.6 405L517.3 450Z" fill="#366bab" stroke="#366bab"></path><path d="M517.3 450L596.6 405L532.3 379Z" fill="#7fb4df" stroke="#7fb4df"></path><path d="M642.9 332L591.6 252L527.3 304Z" fill="#366bab" stroke="#366bab"></path><path d="M327.4 430L372.4 502L426.7 494Z" fill="#366bab" stroke="#366bab"></path><path d="M426.7 494L465 528L504 485Z" fill="#8dc0e7" stroke="#8dc0e7"></path><path d="M455 170L371.7 231L473 240Z" fill="#72a7d6" stroke="#72a7d6"></path><path d="M371.7 231L322.4 193L346.7 277Z" fill="#2b60a2" stroke="#2b60a2"></path><path d="M274.1 286L343.7 317L346.7 277Z" fill="#4277b4" stroke="#4277b4"></path><path d="M274.1 286L268.4 339L343.7 317Z" fill="#4d83bd" stroke="#4d83bd"></path><path d="M327.4 430L296.1 518L372.4 502Z" fill="#598fc6" stroke="#598fc6"></path><path d="M281.1 225L274.1 286L346.7 277Z" fill="#659bce" stroke="#659bce"></path><path d="M642.9 332L527.3 304L540.6 353Z" fill="#72a7d6" stroke="#72a7d6"></path><path d="M434.7 560L465 528L426.7 494Z" fill="#72a7d6" stroke="#72a7d6"></path><path d="M628.9 396L616.9 391L596.6 405Z" fill="#72a7d6" stroke="#72a7d6"></path><path d="M491 172L455 170L473 240Z" fill="#659bce" stroke="#659bce"></path><path d="M539.6 521L517.3 450L504 485Z" fill="#4d83bd" stroke="#4d83bd"></path><path d="M596.6 405L616.9 391L540.6 353Z" fill="#598fc6" stroke="#598fc6"></path><path d="M523.3 208L491 172L473 240Z" fill="#205499" stroke="#205499"></path><path d="M517.3 164L491 172L523.3 208Z" fill="#598fc6" stroke="#598fc6"></path><path d="M465 528L523.3 520L504 485Z" fill="#205499" stroke="#205499"></path><path d="M663.1 440L628.9 396L596.6 405Z" fill="#205499" stroke="#205499"></path><path d="M616.9 391L642.9 332L540.6 353Z" fill="#2b60a2" stroke="#2b60a2"></path><path d="M226.9 369L247.9 386L268.4 339Z" fill="#7fb4df" stroke="#7fb4df"></path><path d="M268.4 339L247.9 386L327.4 430Z" fill="#598fc6" stroke="#598fc6"></path><path d="M350.7 126L322.4 193L362.7 200Z" fill="#7fb4df" stroke="#7fb4df"></path><path d="M362.7 200L322.4 193L371.7 231Z" fill="#144990" stroke="#144990"></path><path d="M555.6 586L539.6 521L523.3 520Z" fill="#205499" stroke="#205499"></path><path d="M523.3 520L539.6 521L504 485Z" fill="#72a7d6" stroke="#72a7d6"></path><path d="M606.6 218L517.3 164L523.3 208Z" fill="#659bce" stroke="#659bce"></path><path d="M491 172L475.3 127L455 170Z" fill="#8dc0e7" stroke="#8dc0e7"></path><path d="M322.4 193L281.1 225L346.7 277Z" fill="#366bab" stroke="#366bab"></path><path d="M208.1 314L226.9 369L268.4 339Z" fill="#598fc6" stroke="#598fc6"></path><path d="M628.9 396L642.9 332L616.9 391Z" fill="#144990" stroke="#144990"></path><path d="M606.6 218L601.6 224L669.1 226Z" fill="#8dc0e7" stroke="#8dc0e7"></path><path d="M591.6 252L601.6 224L523.3 208Z" fill="#4d83bd" stroke="#4d83bd"></path><path d="M350.7 126L308.4 188L322.4 193Z" fill="#72a7d6" stroke="#72a7d6"></path><path d="M322.4 193L308.4 188L281.1 225Z" fill="#72a7d6" stroke="#72a7d6"></path><path d="M372.4 502L434.7 560L426.7 494Z" fill="#2b60a2" stroke="#2b60a2"></path><path d="M465 528L555.6 586L523.3 520Z" fill="#205499" stroke="#205499"></path><path d="M669.9 268L601.6 224L591.6 252Z" fill="#4d83bd" stroke="#4d83bd"></path><path d="M601.6 224L606.6 218L523.3 208Z" fill="#7fb4df" stroke="#7fb4df"></path><path d="M208.1 314L268.4 339L274.1 286Z" fill="#4d83bd" stroke="#4d83bd"></path><path d="M239.1 466L296.1 518L327.4 430Z" fill="#7fb4df" stroke="#7fb4df"></path><path d="M392.7 600L428 600L434.7 560Z" fill="#8dc0e7" stroke="#8dc0e7"></path><path d="M287.4 524L296.1 518L239.1 466Z" fill="#7fb4df" stroke="#7fb4df"></path><path d="M555.6 586L609.9 498L539.6 521Z" fill="#8dc0e7" stroke="#8dc0e7"></path><path d="M539.6 521L609.9 498L517.3 450Z" fill="#205499" stroke="#205499"></path><path d="M628.9 396L723.1 338L642.9 332Z" fill="#7fb4df" stroke="#7fb4df"></path><path d="M517.3 164L475.3 127L491 172Z" fill="#2b60a2" stroke="#2b60a2"></path><path d="M455 170L350.7 126L362.7 200Z" fill="#8dc0e7" stroke="#8dc0e7"></path><path d="M576.6 100L475.3 127L517.3 164Z" fill="#7fb4df" stroke="#7fb4df"></path><path d="M239.1 466L327.4 430L247.9 386Z" fill="#4d83bd" stroke="#4d83bd"></path><path d="M392.7 600L434.7 560L372.4 502Z" fill="#8dc0e7" stroke="#8dc0e7"></path><path d="M226.9 369L239.1 466L247.9 386Z" fill="#4d83bd" stroke="#4d83bd"></path><path d="M220.1 218L274.1 286L281.1 225Z" fill="#366bab" stroke="#366bab"></path><path d="M220.1 218L208.1 314L274.1 286Z" fill="#7fb4df" stroke="#7fb4df"></path><path d="M226.9 369L135.6 443L239.1 466Z" fill="#598fc6" stroke="#598fc6"></path><path d="M609.9 498L663.1 440L596.6 405Z" fill="#659bce" stroke="#659bce"></path><path d="M475.3 127L350.7 126L455 170Z" fill="#7fb4df" stroke="#7fb4df"></path><path d="M212.9 184L220.1 218L281.1 225Z" fill="#7fb4df" stroke="#7fb4df"></path><path d="M642.9 332L669.9 268L591.6 252Z" fill="#7fb4df" stroke="#7fb4df"></path><path d="M723.1 338L669.9 268L642.9 332Z" fill="#144990" stroke="#144990"></path><path d="M392.7 600L372.4 502L370.4 600Z" fill="#366bab" stroke="#366bab"></path><path d="M552.3 600L555.6 586L465 528Z" fill="#205499" stroke="#205499"></path><path d="M370.4 600L372.4 502L296.1 518Z" fill="#72a7d6" stroke="#72a7d6"></path><path d="M212.9 184L281.1 225L308.4 188Z" fill="#2b60a2" stroke="#2b60a2"></path><path d="M669.1 226L657.9 211L606.6 218Z" fill="#8dc0e7" stroke="#8dc0e7"></path><path d="M606.6 218L631.6 174L517.3 164Z" fill="#8dc0e7" stroke="#8dc0e7"></path><path d="M430 33L342.4 110L350.7 126Z" fill="#659bce" stroke="#659bce"></path><path d="M350.7 126L271.1 115L308.4 188Z" fill="#72a7d6" stroke="#72a7d6"></path><path d="M657.9 211L631.6 174L606.6 218Z" fill="#659bce" stroke="#659bce"></path><path d="M669.9 268L669.1 226L601.6 224Z" fill="#659bce" stroke="#659bce"></path><path d="M674.1 180L639.9 164L631.6 174Z" fill="#4d83bd" stroke="#4d83bd"></path><path d="M312.1 600L370.4 600L296.1 518Z" fill="#144990" stroke="#144990"></path><path d="M552.3 600L465 528L434.7 560Z" fill="#659bce" stroke="#659bce"></path><path d="M609.9 498L668.9 503L663.1 440Z" fill="#7fb4df" stroke="#7fb4df"></path><path d="M674.1 180L631.6 174L657.9 211Z" fill="#4277b4" stroke="#4277b4"></path><path d="M631.6 174L576.6 100L517.3 164Z" fill="#366bab" stroke="#366bab"></path><path d="M117.6 298L167.9 330L208.1 314Z" fill="#144990" stroke="#144990"></path><path d="M208.1 314L167.9 330L226.9 369Z" fill="#366bab" stroke="#366bab"></path><path d="M428 600L552.3 600L434.7 560Z" fill="#2b60a2" stroke="#2b60a2"></path><path d="M673.1 527L668.9 503L609.9 498Z" fill="#144990" stroke="#144990"></path><path d="M673.1 527L609.9 498L617.6 600Z" fill="#72a7d6" stroke="#72a7d6"></path><path d="M663.1 440L723.1 338L628.9 396Z" fill="#4d83bd" stroke="#4d83bd"></path><path d="M287.4 524L312.1 600L296.1 518Z" fill="#4d83bd" stroke="#4d83bd"></path><path d="M232.1 572L312.1 600L287.4 524Z" fill="#205499" stroke="#205499"></path><path d="M271.1 115L212.9 184L308.4 188Z" fill="#8dc0e7" stroke="#8dc0e7"></path><path d="M134.6 218L117.6 298L208.1 314Z" fill="#4277b4" stroke="#4277b4"></path><path d="M754.1 408L723.1 338L663.1 440Z" fill="#366bab" stroke="#366bab"></path><path d="M669.9 268L736.4 232L669.1 226Z" fill="#659bce" stroke="#659bce"></path><path d="M669.1 226L674.1 180L657.9 211Z" fill="#598fc6" stroke="#598fc6"></path><path d="M639.9 164L576.6 100L631.6 174Z" fill="#144990" stroke="#144990"></path><path d="M475.3 127L430 33L350.7 126Z" fill="#8dc0e7" stroke="#8dc0e7"></path><path d="M736.4 232L674.1 180L669.1 226Z" fill="#4277b4" stroke="#4277b4"></path><path d="M639.9 164L648.9 107L576.6 100Z" fill="#366bab" stroke="#366bab"></path><path d="M342.4 110L271.1 115L350.7 126Z" fill="#366bab" stroke="#366bab"></path><path d="M617.6 600L609.9 498L555.6 586Z" fill="#659bce" stroke="#659bce"></path><path d="M668.9 503L738.1 437L663.1 440Z" fill="#598fc6" stroke="#598fc6"></path><path d="M117.6 298L138.6 380L167.9 330Z" fill="#4d83bd" stroke="#4d83bd"></path><path d="M167.9 330L138.6 380L226.9 369Z" fill="#7fb4df" stroke="#7fb4df"></path><path d="M239.1 466L232.1 572L287.4 524Z" fill="#72a7d6" stroke="#72a7d6"></path><path d="M164.9 509L232.1 572L239.1 466Z" fill="#366bab" stroke="#366bab"></path><path d="M552.3 600L617.6 600L555.6 586Z" fill="#4d83bd" stroke="#4d83bd"></path><path d="M732.4 514L738.1 437L668.9 503Z" fill="#8dc0e7" stroke="#8dc0e7"></path><path d="M479.3 7L430 33L475.3 127Z" fill="#4d83bd" stroke="#4d83bd"></path><path d="M288.4 39L254.1 80L271.1 115Z" fill="#8dc0e7" stroke="#8dc0e7"></path><path d="M723.1 338L736.4 232L669.9 268Z" fill="#7fb4df" stroke="#7fb4df"></path><path d="M767.4 327L736.4 232L723.1 338Z" fill="#659bce" stroke="#659bce"></path><path d="M135.6 443L164.9 509L239.1 466Z" fill="#4d83bd" stroke="#4d83bd"></path><path d="M738.1 437L754.1 408L663.1 440Z" fill="#8dc0e7" stroke="#8dc0e7"></path><path d="M138.6 380L135.6 443L226.9 369Z" fill="#144990" stroke="#144990"></path><path d="M674.1 180L648.9 107L639.9 164Z" fill="#205499" stroke="#205499"></path><path d="M576.6 100L479.3 7L475.3 127Z" fill="#72a7d6" stroke="#72a7d6"></path><path d="M737.4 161L648.9 107L674.1 180Z" fill="#4277b4" stroke="#4277b4"></path><path d="M841.7 434L758.4 414L845.7 462Z" fill="#2b60a2" stroke="#2b60a2"></path><path d="M738.1 437L758.4 414L754.1 408Z" fill="#659bce" stroke="#659bce"></path><path d="M754.1 408L767.4 327L723.1 338Z" fill="#2b60a2" stroke="#2b60a2"></path><path d="M617.6 600L648.9 600L673.1 527Z" fill="#205499" stroke="#205499"></path><path d="M673.1 527L732.4 514L668.9 503Z" fill="#4d83bd" stroke="#4d83bd"></path><path d="M134.6 218L208.1 314L220.1 218Z" fill="#144990" stroke="#144990"></path><path d="M138.6 380L102.6 428L135.6 443Z" fill="#598fc6" stroke="#598fc6"></path><path d="M784.7 324L767.4 327L754.1 408Z" fill="#205499" stroke="#205499"></path><path d="M271.1 115L178.9 129L212.9 184Z" fill="#598fc6" stroke="#598fc6"></path><path d="M212.9 184L134.6 218L220.1 218Z" fill="#144990" stroke="#144990"></path><path d="M288.4 39L271.1 115L342.4 110Z" fill="#659bce" stroke="#659bce"></path><path d="M120.6 172L134.6 218L212.9 184Z" fill="#8dc0e7" stroke="#8dc0e7"></path><path d="M738.1 600L732.4 514L673.1 527Z" fill="#205499" stroke="#205499"></path><path d="M153.9 558L175.6 564L164.9 509Z" fill="#4d83bd" stroke="#4d83bd"></path><path d="M164.9 509L175.6 564L232.1 572Z" fill="#2b60a2" stroke="#2b60a2"></path><path d="M232.1 572L171.9 600L312.1 600Z" fill="#4277b4" stroke="#4277b4"></path><path d="M254.1 80L178.9 129L271.1 115Z" fill="#8dc0e7" stroke="#8dc0e7"></path><path d="M478 0L479.3 7L621.6 0Z" fill="#205499" stroke="#205499"></path><path d="M356.7 10L288.4 39L342.4 110Z" fill="#8dc0e7" stroke="#8dc0e7"></path><path d="M838.7 347L784.7 324L754.1 408Z" fill="#366bab" stroke="#366bab"></path><path d="M767.4 327L801.4 279L736.4 232Z" fill="#4277b4" stroke="#4277b4"></path><path d="M838.7 347L754.1 408L758.4 414Z" fill="#7fb4df" stroke="#7fb4df"></path><path d="M356.7 10L342.4 110L430 33Z" fill="#7fb4df" stroke="#7fb4df"></path><path d="M254.1 80L148.9 101L178.9 129Z" fill="#8dc0e7" stroke="#8dc0e7"></path><path d="M86.3 394L102.6 428L138.6 380Z" fill="#8dc0e7" stroke="#8dc0e7"></path><path d="M135.6 443L94.3 479L164.9 509Z" fill="#4277b4" stroke="#4277b4"></path><path d="M738.1 600L751.4 509L732.4 514Z" fill="#72a7d6" stroke="#72a7d6"></path><path d="M732.4 514L751.4 509L738.1 437Z" fill="#205499" stroke="#205499"></path><path d="M390.7 0L356.7 10L430 33Z" fill="#72a7d6" stroke="#72a7d6"></path><path d="M479.3 7L467.3 0L430 33Z" fill="#144990" stroke="#144990"></path><path d="M842.7 198L737.4 161L736.4 232Z" fill="#205499" stroke="#205499"></path><path d="M736.4 232L737.4 161L674.1 180Z" fill="#4277b4" stroke="#4277b4"></path><path d="M621.6 0L479.3 7L576.6 100Z" fill="#205499" stroke="#205499"></path><path d="M479.3 7L478 0L467.3 0Z" fill="#2b60a2" stroke="#2b60a2"></path><path d="M660.1 72L576.6 100L648.9 107Z" fill="#598fc6" stroke="#598fc6"></path><path d="M467.3 0L390.7 0L430 33Z" fill="#598fc6" stroke="#598fc6"></path><path d="M740.1 99L660.1 72L648.9 107Z" fill="#366bab" stroke="#366bab"></path><path d="M94.3 479L153.9 558L164.9 509Z" fill="#205499" stroke="#205499"></path><path d="M117.6 298L86.3 394L138.6 380Z" fill="#2b60a2" stroke="#2b60a2"></path><path d="M102.6 428L94.3 479L135.6 443Z" fill="#4277b4" stroke="#4277b4"></path><path d="M0 358L86.3 394L117.6 298Z" fill="#205499" stroke="#205499"></path><path d="M390.7 0L362.4 0L356.7 10Z" fill="#4d83bd" stroke="#4d83bd"></path><path d="M356.7 10L299.1 0L288.4 39Z" fill="#4d83bd" stroke="#4d83bd"></path><path d="M148.9 101L120.6 172L178.9 129Z" fill="#72a7d6" stroke="#72a7d6"></path><path d="M178.9 129L120.6 172L212.9 184Z" fill="#8dc0e7" stroke="#8dc0e7"></path><path d="M134.6 218L54.3 265L117.6 298Z" fill="#144990" stroke="#144990"></path><path d="M153.9 558L171.9 600L175.6 564Z" fill="#7fb4df" stroke="#7fb4df"></path><path d="M175.6 564L171.9 600L232.1 572Z" fill="#7fb4df" stroke="#7fb4df"></path><path d="M784.7 324L801.4 279L767.4 327Z" fill="#8dc0e7" stroke="#8dc0e7"></path><path d="M816.7 248L801.4 279L900 307Z" fill="#144990" stroke="#144990"></path><path d="M20.3 409L94.3 479L102.6 428Z" fill="#4277b4" stroke="#4277b4"></path><path d="M153.9 558L86.6 600L171.9 600Z" fill="#4d83bd" stroke="#4d83bd"></path><path d="M362.4 0L299.1 0L356.7 10Z" fill="#598fc6" stroke="#598fc6"></path><path d="M288.4 39L218.9 9L254.1 80Z" fill="#659bce" stroke="#659bce"></path><path d="M218.9 9L148.9 101L254.1 80Z" fill="#7fb4df" stroke="#7fb4df"></path><path d="M842.7 198L758.4 131L737.4 161Z" fill="#7fb4df" stroke="#7fb4df"></path><path d="M737.4 161L740.1 99L648.9 107Z" fill="#4277b4" stroke="#4277b4"></path><path d="M648.9 600L738.1 600L673.1 527Z" fill="#366bab" stroke="#366bab"></path><path d="M838.7 347L801.4 279L784.7 324Z" fill="#2b60a2" stroke="#2b60a2"></path><path d="M838.7 347L758.4 414L841.7 434Z" fill="#8dc0e7" stroke="#8dc0e7"></path><path d="M801.4 279L816.7 248L736.4 232Z" fill="#4d83bd" stroke="#4d83bd"></path><path d="M758.4 131L740.1 99L737.4 161Z" fill="#205499" stroke="#205499"></path><path d="M660.1 72L621.6 0L576.6 100Z" fill="#8dc0e7" stroke="#8dc0e7"></path><path d="M666.9 0L621.6 0L660.1 72Z" fill="#144990" stroke="#144990"></path><path d="M33.3 186L134.6 218L120.6 172Z" fill="#598fc6" stroke="#598fc6"></path><path d="M33.3 186L54.3 265L134.6 218Z" fill="#205499" stroke="#205499"></path><path d="M86.3 394L20.3 409L102.6 428Z" fill="#205499" stroke="#205499"></path><path d="M758.4 414L738.1 437L845.7 462Z" fill="#8dc0e7" stroke="#8dc0e7"></path><path d="M74.6 84L111.6 112L78.3 64Z" fill="#4d83bd" stroke="#4d83bd"></path><path d="M148.9 101L111.6 112L120.6 172Z" fill="#8dc0e7" stroke="#8dc0e7"></path><path d="M299.1 0L218.9 9L288.4 39Z" fill="#598fc6" stroke="#598fc6"></path><path d="M845.7 462L738.1 437L751.4 509Z" fill="#366bab" stroke="#366bab"></path><path d="M697.1 0L666.9 0L660.1 72Z" fill="#144990" stroke="#144990"></path><path d="M850.7 575L845.7 462L751.4 509Z" fill="#72a7d6" stroke="#72a7d6"></path><path d="M900 392L900 310L838.7 347Z" fill="#205499" stroke="#205499"></path><path d="M740.1 99L744.4 59L660.1 72Z" fill="#4277b4" stroke="#4277b4"></path><path d="M794.7 106L744.4 59L740.1 99Z" fill="#2b60a2" stroke="#2b60a2"></path><path d="M794.7 106L740.1 99L758.4 131Z" fill="#2b60a2" stroke="#2b60a2"></path><path d="M0 380L20.3 409L86.3 394Z" fill="#72a7d6" stroke="#72a7d6"></path><path d="M94.3 479L43.3 514L153.9 558Z" fill="#598fc6" stroke="#598fc6"></path><path d="M900 192L842.7 198L816.7 248Z" fill="#4d83bd" stroke="#4d83bd"></path><path d="M816.7 248L842.7 198L736.4 232Z" fill="#72a7d6" stroke="#72a7d6"></path><path d="M900 307L801.4 279L838.7 347Z" fill="#4d83bd" stroke="#4d83bd"></path><path d="M842.7 198L794.7 106L758.4 131Z" fill="#144990" stroke="#144990"></path><path d="M738.1 600L790.4 600L751.4 509Z" fill="#7fb4df" stroke="#7fb4df"></path><path d="M0 439L43.3 514L94.3 479Z" fill="#4277b4" stroke="#4277b4"></path><path d="M739.4 0L697.1 0L744.4 59Z" fill="#8dc0e7" stroke="#8dc0e7"></path><path d="M744.4 59L697.1 0L660.1 72Z" fill="#2b60a2" stroke="#2b60a2"></path><path d="M43.3 514L86.6 600L153.9 558Z" fill="#598fc6" stroke="#598fc6"></path><path d="M52.3 135L33.3 186L120.6 172Z" fill="#4d83bd" stroke="#4d83bd"></path><path d="M54.3 265L0 358L117.6 298Z" fill="#598fc6" stroke="#598fc6"></path><path d="M52.3 135L120.6 172L111.6 112Z" fill="#205499" stroke="#205499"></path><path d="M20.3 409L0 439L94.3 479Z" fill="#366bab" stroke="#366bab"></path><path d="M0 291L0 358L54.3 265Z" fill="#144990" stroke="#144990"></path><path d="M0 358L0 380L86.3 394Z" fill="#598fc6" stroke="#598fc6"></path><path d="M74.6 84L52.3 135L111.6 112Z" fill="#2b60a2" stroke="#2b60a2"></path><path d="M0 190L0 291L54.3 265Z" fill="#659bce" stroke="#659bce"></path><path d="M790.4 600L810.7 600L751.4 509Z" fill="#598fc6" stroke="#598fc6"></path><path d="M0 380L0 439L20.3 409Z" fill="#4277b4" stroke="#4277b4"></path><path d="M43.3 514L42.3 600L86.6 600Z" fill="#205499" stroke="#205499"></path><path d="M78.3 64L111.6 112L148.9 101Z" fill="#8dc0e7" stroke="#8dc0e7"></path><path d="M299.1 0L150.9 0L218.9 9Z" fill="#144990" stroke="#144990"></path><path d="M218.9 9L150.9 0L148.9 101Z" fill="#144990" stroke="#144990"></path><path d="M804.7 0L739.4 0L744.4 59Z" fill="#7fb4df" stroke="#7fb4df"></path><path d="M804.7 0L744.4 59L794.7 106Z" fill="#4d83bd" stroke="#4d83bd"></path><path d="M900 392L841.7 434L900 490Z" fill="#366bab" stroke="#366bab"></path><path d="M900 392L838.7 347L841.7 434Z" fill="#2b60a2" stroke="#2b60a2"></path><path d="M900 490L841.7 434L845.7 462Z" fill="#4277b4" stroke="#4277b4"></path><path d="M900 310L900 307L838.7 347Z" fill="#7fb4df" stroke="#7fb4df"></path><path d="M842.7 198L900 148L794.7 106Z" fill="#144990" stroke="#144990"></path><path d="M150.9 0L139.6 0L148.9 101Z" fill="#4277b4" stroke="#4277b4"></path><path d="M139.6 0L78.3 64L148.9 101Z" fill="#7fb4df" stroke="#7fb4df"></path><path d="M0 104L0 168L52.3 135Z" fill="#144990" stroke="#144990"></path><path d="M0 168L0 190L33.3 186Z" fill="#2b60a2" stroke="#2b60a2"></path><path d="M810.7 600L850.7 575L751.4 509Z" fill="#2b60a2" stroke="#2b60a2"></path><path d="M0 168L33.3 186L52.3 135Z" fill="#72a7d6" stroke="#72a7d6"></path><path d="M33.3 186L0 190L54.3 265Z" fill="#598fc6" stroke="#598fc6"></path><path d="M0 576L42.3 600L43.3 514Z" fill="#4277b4" stroke="#4277b4"></path><path d="M0 104L52.3 135L0 103Z" fill="#598fc6" stroke="#598fc6"></path><path d="M900 515L900 490L845.7 462Z" fill="#598fc6" stroke="#598fc6"></path><path d="M139.6 0L60.3 49L78.3 64Z" fill="#72a7d6" stroke="#72a7d6"></path><path d="M78.3 64L60.3 49L74.6 84Z" fill="#7fb4df" stroke="#7fb4df"></path><path d="M900 307L900 192L816.7 248Z" fill="#4277b4" stroke="#4277b4"></path><path d="M850.7 575L900 515L845.7 462Z" fill="#598fc6" stroke="#598fc6"></path><path d="M0 439L0 576L43.3 514Z" fill="#598fc6" stroke="#598fc6"></path><path d="M900 192L900 148L842.7 198Z" fill="#205499" stroke="#205499"></path><path d="M0 103L52.3 135L74.6 84Z" fill="#72a7d6" stroke="#72a7d6"></path><path d="M856.7 29L804.7 0L794.7 106Z" fill="#4d83bd" stroke="#4d83bd"></path><path d="M60.3 49L0 103L74.6 84Z" fill="#8dc0e7" stroke="#8dc0e7"></path><path d="M0 576L0 600L42.3 600Z" fill="#7fb4df" stroke="#7fb4df"></path><path d="M900 148L900 129L794.7 106Z" fill="#205499" stroke="#205499"></path><path d="M810.7 600L900 600L850.7 575Z" fill="#4277b4" stroke="#4277b4"></path><path d="M850.7 575L900 600L900 515Z" fill="#366bab" stroke="#366bab"></path><path d="M900 85L856.7 29L794.7 106Z" fill="#2b60a2" stroke="#2b60a2"></path><path d="M900 129L900 85L794.7 106Z" fill="#366bab" stroke="#366bab"></path><path d="M139.6 0L33.3 0L60.3 49Z" fill="#366bab" stroke="#366bab"></path><path d="M60.3 49L0 0L0 103Z" fill="#598fc6" stroke="#598fc6"></path><path d="M33.3 0L0 0L60.3 49Z" fill="#659bce" stroke="#659bce"></path><path d="M900 85L900 0L856.7 29Z" fill="#598fc6" stroke="#598fc6"></path><path d="M856.7 29L900 0L804.7 0Z" fill="#144990" stroke="#144990"></path></g></svg>